<?xml version="1.0" standalone="no"?>
<!DOCTYPE svg PUBLIC "-//W3C//DTD SVG 20010904//EN"
 "http://www.w3.org/TR/2001/REC-SVG-20010904/DTD/svg10.dtd">
<svg version="1.0" xmlns="http://www.w3.org/2000/svg"
 width="1024.000000pt" height="1024.000000pt" viewBox="0 0 1024.000000 1024.000000"
 preserveAspectRatio="xMidYMid meet">
<metadata>
Created by potrace 1.11, written by Peter Selinger 2001-2013
</metadata>
<g transform="translate(0.000000,1024.000000) scale(0.100000,-0.100000)"
fill="#000000" stroke="none">
<path d="M3765 7994 c-71 -50 -289 -180 -433 -259 -319 -174 -800 -385 -1107
-485 -55 -18 -103 -35 -107 -39 -9 -8 112 -188 209 -311 120 -154 277 -323
415 -447 82 -74 125 -120 120 -127 -148 -196 -374 -451 -625 -704 -118 -119
-207 -216 -201 -220 459 -314 1060 -521 1729 -598 182 -21 623 -24 795 -6 670
72 1208 278 1645 629 107 86 319 299 372 375 l32 45 -199 137 -199 136 -83
-24 c-152 -44 -271 -59 -448 -59 -131 0 -186 4 -267 21 -439 94 -802 370
-1112 847 -172 264 -356 688 -452 1038 -13 48 -26 87 -29 86 -3 0 -27 -16 -55
-35z"/>
<path d="M5560 8019 c-444 -48 -855 -210 -1211 -476 l-89 -66 26 -46 c61 -107
218 -333 292 -421 106 -127 247 -262 365 -349 l96 -71 67 46 c370 253 851 285
1254 83 343 -172 586 -499 661 -889 20 -100 17 -348 -5 -448 -52 -244 -164
-457 -325 -621 -240 -246 -541 -373 -881 -374 -149 0 -224 10 -356 49 -91 26
-252 97 -304 134 -25 18 -34 19 -74 10 -220 -49 -699 -73 -1007 -50 l-171 12
-237 -236 -236 -236 415 -415 415 -415 153 152 152 151 143 -71 c173 -87 320
-143 492 -187 237 -60 321 -70 615 -70 232 0 281 3 393 23 397 72 744 220
1049 450 122 91 334 295 425 407 253 313 425 688 498 1081 167 905 -189 1819
-924 2373 -318 239 -681 390 -1098 456 -118 19 -473 28 -593 14z"/>
<path d="M2807 3462 l-417 -417 418 -418 417 -417 420 420 420 420 -417 415
c-229 228 -418 415 -420 415 -2 0 -191 -188 -421 -418z"/>
</g>
</svg>
